<?xml version="1.0" encoding="UTF-8"?>
<svg version="1.1" xmlns="http://www.w3.org/2000/svg" width="500" height="500">
<path d="M0 0 C165 0 330 0 500 0 C500 165 500 330 500 500 C335 500 170 500 0 500 C0 335 0 170 0 0 Z " fill="#F3F0DB" transform="translate(0,0)"/>
<path d="M0 0 C0.33 0.99 0.66 1.98 1 3 C1.928125 3.103125 2.85625 3.20625 3.8125 3.3125 C7.1710239 4.03688751 7.99972387 4.34080938 10 7 C10.37109375 9.33984375 10.37109375 9.33984375 10.4375 11.9375 C10.67923805 16.01623737 10.67923805 16.01623737 12.9375 19.375 C13.618125 19.91125 14.29875 20.4475 15 21 C15.66666667 22.33333333 16.33333333 23.66666667 17 25 C17.70125 25.5775 18.4025 26.155 19.125 26.75 C21.92608106 30.11129727 21.13706578 32.68242799 21 37 C21.66 37.99 22.32 38.98 23 40 C23.43435184 48.3105985 20.65087012 56.24466369 18 64 C16.76077777 60.28233332 17.42981058 58.56110463 18.4375 54.8125 C18.72496094 53.72582031 19.01242187 52.63914063 19.30859375 51.51953125 C19.53675781 50.68808594 19.76492188 49.85664063 20 49 C18.68 49 17.36 49 16 49 C15.81824219 50.19496094 15.81824219 50.19496094 15.6328125 51.4140625 C13.96836555 61.93848858 13.96836555 61.93848858 12 67 C12.99 67.33 13.98 67.66 15 68 C9.04903827 70.56880922 4.32664367 71.44849586 -2.125 71.3125 C-3.28322266 71.31733398 -3.28322266 71.31733398 -4.46484375 71.32226562 C-9.01976953 71.27958744 -12.71524633 70.71800826 -17 69 C-16.01 68.505 -16.01 68.505 -15 68 C-15.28875 66.86820312 -15.5775 65.73640625 -15.875 64.5703125 C-16.25012392 63.08857303 -16.62511714 61.60680047 -17 60.125 C-17.19078125 59.37863281 -17.3815625 58.63226563 -17.578125 57.86328125 C-19 52.2265625 -19 52.2265625 -19 50 C-20.32 49.67 -21.64 49.34 -23 49 C-22.84402344 49.60328125 -22.68804687 50.2065625 -22.52734375 50.828125 C-22.33269531 51.62734375 -22.13804687 52.4265625 -21.9375 53.25 C-21.74027344 54.03890625 -21.54304687 54.8278125 -21.33984375 55.640625 C-20.98502733 58.10394822 -21.23122456 59.65604132 -22 62 C-24.75942049 54.19031937 -26.28179555 47.31296886 -26 39 C-25.505 38.505 -25.505 38.505 -25 38 C-24.63239269 35.67182036 -24.29758419 33.3381615 -24 31 C-23.34 32.32 -22.68 33.64 -22 35 C-12.96001336 35.8862732 -4.37168844 32.43327414 3.1875 27.5625 C6.23186349 24.7887466 7.16486701 22.99007986 8 19 C7.30132812 19.3609375 6.60265625 19.721875 5.8828125 20.09375 C4.97273438 20.5578125 4.06265625 21.021875 3.125 21.5 C2.22007812 21.9640625 1.31515625 22.428125 0.3828125 22.90625 C-2 24 -2 24 -4 24 C-4 23.34 -4 22.68 -4 22 C-8.455 23.485 -8.455 23.485 -13 25 C-10.69 25 -8.38 25 -6 25 C-10.74705277 28.16470185 -14.31771295 28.10927475 -20 28 C-19.38461538 22.46153846 -19.38461538 22.46153846 -17.4375 20.125 C-16.963125 19.75375 -16.48875 19.3825 -16 19 C-15.34 19.33 -14.68 19.66 -14 20 C-14.99 21.32 -15.98 22.64 -17 24 C-14.69 23.01 -12.38 22.02 -10 21 C-10.33 20.01 -10.66 19.02 -11 18 C-10.319375 18.33 -9.63875 18.66 -8.9375 19 C-4.78550498 20.41344511 -1.11071374 20.9463239 3.00390625 19.1015625 C4.70708542 18.13126649 6.35880167 17.07180299 8 16 C8.04125 14.72125 8.0825 13.4425 8.125 12.125 C8.14820313 11.40570313 8.17140625 10.68640625 8.1953125 9.9453125 C8.18331689 7.76136355 8.18331689 7.76136355 6 6 C4.01178687 5.60235737 2.01055661 5.26224651 0 5 C0.66 5.33 1.32 5.66 2 6 C2 6.66 2 7.32 2 8 C0.35 8 -1.3 8 -3 8 C-2.67 7.01 -2.34 6.02 -2 5 C-5.43230448 5.26393501 -5.43230448 5.26393501 -9 6 C-11.29633824 9.44450737 -11.54016485 11.93812283 -12 16 C-12.33 16 -12.66 16 -13 16 C-13.60218978 8.89416058 -13.60218978 8.89416058 -10.9375 4.9375 C-8 3 -8 3 -4.1875 3.1875 C-3.135625 3.455625 -2.08375 3.72375 -1 4 C-0.67 2.68 -0.34 1.36 0 0 Z " fill="#9F8155" transform="translate(248,152)"/>
<path d="M0 0 C0.66 0.33 1.32 0.66 2 1 C2 2.32 2 3.64 2 5 C1.26394531 5.23074219 0.52789062 5.46148437 -0.23046875 5.69921875 C-6.72089982 7.8684117 -11.79255321 9.58510641 -15 16 C-6.98829109 19.37563866 -2.32401194 20.77467065 6 18 C7.39439664 17.93334624 8.79169875 17.91461801 10.1875 17.9375 C12.0746875 17.9684375 12.0746875 17.9684375 14 18 C14.17015625 17.37351562 14.3403125 16.74703125 14.515625 16.1015625 C14.75796875 15.28429687 15.0003125 14.46703125 15.25 13.625 C15.48203125 12.81289063 15.7140625 12.00078125 15.953125 11.1640625 C17.2214892 8.54214546 18.32423308 8.00617682 21 7 C21.66 7.66 22.32 8.32 23 9 C22.56950665 12.51569569 21.49242942 15.85589138 20.5 19.25 C19.12632739 24.18852056 18.41834226 28.89622447 18 34 C23.34175086 29.14386285 27.11568479 23.31254504 31.11230469 17.33691406 C31.89056634 16.17377617 32.67185332 15.0126572 33.45605469 13.85351562 C34.57359284 12.2010156 35.68156556 10.54205882 36.7890625 8.8828125 C38.99145395 6.01114308 40.99306834 4.00302761 44 2 C49.98550725 1.49275362 49.98550725 1.49275362 53 3 C54.66619446 3.0396713 56.33391013 3.04384447 58 3 C59.54020346 7.76062888 58.20704297 9.66473702 56 14 C53.48599508 21.90619306 52.4248857 29.73670572 52 38 C50.35 37.67 48.7 37.34 47 37 C45.40381046 30.13638499 46.75279915 23.85445096 48 17 C46.39038739 19.2045351 44.78727855 21.41334509 43.1875 23.625 C42.73568359 24.24246094 42.28386719 24.85992187 41.81835938 25.49609375 C39.14732216 29.20045194 37.00948511 32.88447795 35 37 C34.34 37.66 33.68 38.32 33 39 C30.04337034 38.77256695 28.44966312 38.38764062 26.1875 36.4375 C25.795625 35.963125 25.40375 35.48875 25 35 C24.1646875 35.99 24.1646875 35.99 23.3125 37 C21 39 21 39 18.4375 39.4375 C15.456718 38.90248785 14.74242402 38.46342707 13 36 C12.70703125 32.64453125 12.70703125 32.64453125 12.8125 28.8125 C12.83957031 27.54019531 12.86664063 26.26789063 12.89453125 24.95703125 C12.92933594 23.98121094 12.96414063 23.00539063 13 22 C10.69 22.33 8.38 22.66 6 23 C5.81509993 25.32357511 5.81509993 25.32357511 8 28 C7.9375 31 7.9375 31 7 34 C4.5625 35.9375 4.5625 35.9375 2 37 C1.34 36.67 0.68 36.34 0 36 C0 35.34 0 34.68 0 34 C0.639375 33.54625 1.27875 33.0925 1.9375 32.625 C4.32031322 30.74763201 4.4381285 29.87441633 5 27 C0.24191479 25.82997905 -2.48031428 25.27406089 -6.9765625 27.421875 C-13.57118501 31.17387006 -13.57118501 31.17387006 -17.625 37.125 C-17.74875 37.74375 -17.8725 38.3625 -18 39 C-17.1028125 39.185625 -17.1028125 39.185625 -16.1875 39.375 C-14 40 -14 40 -11 42 C-17.39075249 42.36174071 -17.39075249 42.36174071 -20 40.8125 C-21 39 -21 39 -20.8359375 36.6484375 C-19.77869702 33.29886253 -18.30174431 32.05178286 -15.625 29.8125 C-14.83351563 29.13832031 -14.04203125 28.46414063 -13.2265625 27.76953125 C-11 26 -11 26 -8 24 C-8.78246094 23.6596875 -9.56492187 23.319375 -10.37109375 22.96875 C-18.17781806 19.22947823 -18.17781806 19.22947823 -20.26953125 16.1015625 C-20.86697682 13.64377828 -20.85077652 12.39560758 -20 10 C-14.8714462 3.79467192 -8.25302506 -2.20080668 0 0 Z " fill="#906D3D" transform="translate(319,247)"/>
<path d="M0 0 C0.70125 0.28875 1.4025 0.5775 2.125 0.875 C2.30128845 6.82812548 1.71649065 12.17935286 0.5 18 C0.32686279 18.85094238 0.15372559 19.70188477 -0.0246582 20.57861328 C-1.65265023 28.31843196 -3.69260971 35.93388723 -5.85595703 43.53955078 C-7.80094371 50.39071883 -9.01062635 56.58361764 -8.9375 63.75 C-8.92847656 64.90242188 -8.91945312 66.05484375 -8.91015625 67.2421875 C-8.89855469 68.11101562 -8.88695312 68.97984375 -8.875 69.875 C-11.35449965 69.54440005 -12.53803059 69.30474264 -14.109375 67.30078125 C-15.1847192 63.8936958 -15.16416352 60.59700785 -15.125 57.0625 C-15.13660156 56.03286133 -15.13660156 56.03286133 -15.1484375 54.98242188 C-15.13058673 50.26535462 -14.35078642 46.35506591 -12.875 41.875 C-16.22887679 42.08194133 -19.54145897 42.45545722 -22.875 42.875 C-23.72449219 42.93171875 -24.57398438 42.9884375 -25.44921875 43.046875 C-29.10976571 43.62152915 -31.71374867 44.43263751 -34.10742188 47.40576172 C-37.14821619 51.99006323 -39.54127134 56.90334994 -41.875 61.875 C-42.42671875 63.03 -42.9784375 64.185 -43.546875 65.375 C-44.69864589 67.85971923 -45.81113751 70.35166787 -46.875 72.875 C-48.195 72.545 -49.515 72.215 -50.875 71.875 C-51.6796875 69.9296875 -51.6796875 69.9296875 -51.875 66.875 C-50.55233448 63.74156074 -48.77394617 60.89633571 -47 58 C-43.18557303 51.91564577 -43.18557303 51.91564577 -41.4296875 45.0546875 C-40.875 41.875 -40.875 41.875 -38.10546875 39.8125 C-37.03941406 39.173125 -35.97335938 38.53375 -34.875 37.875 C-32.37686393 35.02406594 -32.37686393 35.02406594 -30.1875 31.875 C-29.44113281 30.84375 -28.69476563 29.8125 -27.92578125 28.75 C-27.24902344 27.80125 -26.57226562 26.8525 -25.875 25.875 C-24.87922551 24.53850797 -23.88112198 23.20371982 -22.875 21.875 C-22.215 22.205 -21.555 22.535 -20.875 22.875 C-18.81156982 20.19912764 -18.81156982 20.19912764 -18.51171875 17.9921875 C-17.05419585 13.14570031 -12.27944003 9.48336655 -8.875 5.875 C-8.29621094 5.20855469 -7.71742188 4.54210937 -7.12109375 3.85546875 C-3.52542508 -0.15327935 -3.52542508 -0.15327935 0 0 Z " fill="#98784A" transform="translate(161.875,225.125)"/>
<path d="M0 0 C1.65 0 3.3 0 5 0 C6.15625 1.69140625 6.15625 1.69140625 7 4 C6.09375 6.27734375 6.09375 6.27734375 4.5 8.9375 C-0.25637418 17.73788817 -2.475206 27.37168589 -5 37 C-4.67797607 36.30382568 -4.35595215 35.60765137 -4.02416992 34.89038086 C-1.45337905 29.40307772 1.16925622 23.8498821 6 20 C9.0625 19.25 9.0625 19.25 12 20 C14.875 22 14.875 22 17 25 C18.28066831 32.2998094 15.62742027 38.69076902 12 45 C8.13348082 50.18451363 3.21906061 56.75748758 -3 59 C-6.25 59.125 -6.25 59.125 -9 59 C-9.33 60.98 -9.66 62.96 -10 65 C-12.91517292 63.92598892 -14.77810176 63.22189824 -17 61 C-18.25967316 41.68501154 -9.42490274 16.59783757 0 0 Z " fill="#8E6B3B" transform="translate(223,226)"/>
<path d="M0 0 C0.33 0.99 0.66 1.98 1 3 C1.928125 3.103125 2.85625 3.20625 3.8125 3.3125 C7.1710239 4.03688751 7.99972387 4.34080938 10 7 C10.37109375 9.33984375 10.37109375 9.33984375 10.4375 11.9375 C10.67923805 16.01623737 10.67923805 16.01623737 12.9375 19.375 C13.618125 19.91125 14.29875 20.4475 15 21 C15.66666667 22.33333333 16.33333333 23.66666667 17 25 C17.70125 25.5775 18.4025 26.155 19.125 26.75 C21.92608106 30.11129727 21.13706578 32.68242799 21 37 C21.66 37.99 22.32 38.98 23 40 C23.43435184 48.3105985 20.65087012 56.24466369 18 64 C16.76077777 60.28233332 17.42981058 58.56110463 18.4375 54.8125 C18.72496094 53.72582031 19.01242187 52.63914063 19.30859375 51.51953125 C19.53675781 50.68808594 19.76492188 49.85664063 20 49 C18.68 49 17.36 49 16 49 C15.81824219 50.19496094 15.81824219 50.19496094 15.6328125 51.4140625 C13.96836555 61.93848858 13.96836555 61.93848858 12 67 C12.99 67.33 13.98 67.66 15 68 C13.70990357 68.50403768 12.41786211 69.00309926 11.125 69.5 C10.40570313 69.7784375 9.68640625 70.056875 8.9453125 70.34375 C7 71 7 71 5 71 C4.07155611 66.66726186 4.07155611 63.33273814 5 59 C5.66 59 6.32 59 7 59 C6.67 62.3 6.34 65.6 6 69 C7.32 69 8.64 69 10 69 C10.12117188 68.38253906 10.24234375 67.76507813 10.3671875 67.12890625 C11.50074568 61.4000776 12.71369966 55.69647293 14 50 C11.03 50.495 11.03 50.495 8 51 C7.67 50.34 7.34 49.68 7 49 C13.93 48.01 13.93 48.01 21 47 C20.505 43.04 20.505 43.04 20 39 C18.7625 39.45375 17.525 39.9075 16.25 40.375 C4.94986217 44.11805978 -7.55122417 45.95503165 -19 42 C-20 39 -20 39 -20 36 C-19.27296875 35.85304687 -18.5459375 35.70609375 -17.796875 35.5546875 C-9.70477333 33.74952636 -0.01772516 31.3885921 5.77734375 25.05859375 C6.99197057 23.0135192 7.58377468 21.33086178 8 19 C7.30132812 19.3609375 6.60265625 19.721875 5.8828125 20.09375 C4.97273438 20.5578125 4.06265625 21.021875 3.125 21.5 C2.22007812 21.9640625 1.31515625 22.428125 0.3828125 22.90625 C-2 24 -2 24 -4 24 C-4 23.34 -4 22.68 -4 22 C-8.455 23.485 -8.455 23.485 -13 25 C-10.69 25 -8.38 25 -6 25 C-10.74705277 28.16470185 -14.31771295 28.10927475 -20 28 C-19.38461538 22.46153846 -19.38461538 22.46153846 -17.4375 20.125 C-16.963125 19.75375 -16.48875 19.3825 -16 19 C-15.34 19.33 -14.68 19.66 -14 20 C-14.99 21.32 -15.98 22.64 -17 24 C-14.69 23.01 -12.38 22.02 -10 21 C-10.33 20.01 -10.66 19.02 -11 18 C-10.319375 18.33 -9.63875 18.66 -8.9375 19 C-4.78550498 20.41344511 -1.11071374 20.9463239 3.00390625 19.1015625 C4.70708542 18.13126649 6.35880167 17.07180299 8 16 C8.04125 14.72125 8.0825 13.4425 8.125 12.125 C8.14820313 11.40570313 8.17140625 10.68640625 8.1953125 9.9453125 C8.18331689 7.76136355 8.18331689 7.76136355 6 6 C4.01178687 5.60235737 2.01055661 5.26224651 0 5 C0.66 5.33 1.32 5.66 2 6 C2 6.66 2 7.32 2 8 C0.35 8 -1.3 8 -3 8 C-2.67 7.01 -2.34 6.02 -2 5 C-5.43230448 5.26393501 -5.43230448 5.26393501 -9 6 C-11.29633824 9.44450737 -11.54016485 11.93812283 -12 16 C-12.33 16 -12.66 16 -13 16 C-13.60218978 8.89416058 -13.60218978 8.89416058 -10.9375 4.9375 C-8 3 -8 3 -4.1875 3.1875 C-3.135625 3.455625 -2.08375 3.72375 -1 4 C-0.67 2.68 -0.34 1.36 0 0 Z " fill="#EAE4CC" transform="translate(248,152)"/>
<path d="M0 0 C0.721875 0.268125 1.44375 0.53625 2.1875 0.8125 C2.29281611 7.31576956 1.90745905 13.60232694 1.1875 20.0625 C0.33600041 27.41808055 0.33600041 27.41808055 0.1875 34.8125 C0.8475 34.8125 1.5075 34.8125 2.1875 34.8125 C2.1875 36.1325 2.1875 37.4525 2.1875 38.8125 C-0.33683607 38.46431571 -1.58434739 38.03350566 -3.43359375 36.2421875 C-5.32108594 32.91635141 -5.17701789 29.90065584 -5.0625 26.1875 C-5.04606445 25.12595703 -5.04606445 25.12595703 -5.02929688 24.04296875 C-4.9153447 18.60299121 -4.53868139 13.20699035 -3.8125 7.8125 C-8.7505598 15.47025264 -12.97331522 22.90832099 -16.48828125 31.328125 C-17.8125 33.8125 -17.8125 33.8125 -20.8125 34.8125 C-22.30078125 33.79296875 -22.30078125 33.79296875 -23.8125 31.8125 C-24.0297101 29.16253674 -24.09601554 26.76173442 -24 24.125 C-23.97969727 23.0721582 -23.97969727 23.0721582 -23.95898438 21.99804688 C-23.92370182 20.26920171 -23.86989583 18.54075235 -23.8125 16.8125 C-33.07480051 29.60225789 -33.07480051 29.60225789 -39.8125 43.8125 C-44.6875 41.9375 -44.6875 41.9375 -45.8125 40.8125 C-45.37180284 35.41395977 -43.80803512 30.83210597 -41.8125 25.8125 C-41.13940286 24.0023782 -40.47308977 22.18972363 -39.8125 20.375 C-39.47347656 19.44816406 -39.13445312 18.52132813 -38.78515625 17.56640625 C-37.63222433 14.30208094 -36.60348343 11.00687879 -35.62109375 7.6875 C-34.67459615 5.49272295 -33.69504486 4.28032582 -31.8125 2.8125 C-29.125 3.125 -29.125 3.125 -26.8125 3.8125 C-27.23177457 8.28476211 -29.16204828 11.15370915 -31.65625 14.75 C-32.96952611 17.09260063 -33.40899159 19.17135404 -33.8125 21.8125 C-33.14863281 20.8740625 -32.48476562 19.935625 -31.80078125 18.96875 C-30.90970275 17.74937943 -30.01772861 16.53066301 -29.125 15.3125 C-28.68994141 14.69246094 -28.25488281 14.07242187 -27.80664062 13.43359375 C-24.47540439 8.94259379 -24.47540439 8.94259379 -21.10546875 8.28125 C-18.8125 8.8125 -18.8125 8.8125 -16.8125 10.8125 C-16.6875 14.4375 -16.6875 14.4375 -16.8125 17.8125 C-13.8775002 15.31231498 -12.14866007 12.742709 -10.375 9.375 C-5.12324505 -0.34154967 -5.12324505 -0.34154967 0 0 Z " fill="#906D3E" transform="translate(202.8125,243.1875)"/>
<path d="M0 0 C3.79610596 1.4025022 6.55238847 3.22587069 8.37890625 6.87890625 C8.49896078 8.37539987 8.55422076 9.87765418 8.56640625 11.37890625 C8.58058594 12.17296875 8.59476562 12.96703125 8.609375 13.78515625 C8.37890625 15.87890625 8.37890625 15.87890625 6.37890625 17.87890625 C6.23839844 18.47703125 6.09789062 19.07515625 5.953125 19.69140625 C4.49325715 25.25280759 -0.10977104 31.11788913 -4.68359375 34.56640625 C-8.32669337 36.19417417 -9.87515687 36.23381959 -13.62109375 34.87890625 C-16.62109375 33.12890625 -16.62109375 33.12890625 -18.62109375 29.87890625 C-18.63384437 20.85147054 -16.10601059 7.75610347 -10.49609375 0.44140625 C-6.59821905 -1.67700391 -4.20292235 -1.09614219 0 0 Z " fill="#906D3D" transform="translate(287.62109375,250.12109375)"/>
<path d="M0 0 C2.38714178 0.01068942 4.77352602 0.00007265 7.16064453 -0.01269531 C19.44715406 -0.02626619 30.70121726 1.19433026 42.33642578 5.38574219 C43.19099365 5.69068604 44.04556152 5.99562988 44.92602539 6.30981445 C62.69296632 12.8539572 76.90054158 23.3038257 90.52392578 36.26074219 C91.18263672 36.855 91.84134766 37.44925781 92.52001953 38.06152344 C101.11674055 46.06262868 107.31351887 56.85520815 112.52392578 67.26074219 C112.95318359 68.10765625 113.38244141 68.95457031 113.82470703 69.82714844 C119.22592487 81.04763502 123.76959453 93.73163601 123.52392578 106.26074219 C122.86392578 106.26074219 122.20392578 106.26074219 121.52392578 106.26074219 C121.19521484 104.48183594 121.19521484 104.48183594 120.85986328 102.66699219 C114.45369991 69.39091677 98.05567404 41.31570644 69.67871094 21.83618164 C54.77771884 11.96220891 38.96560369 6.71186566 21.52392578 3.26074219 C20.57259766 3.05964844 19.62126953 2.85855469 18.64111328 2.65136719 C-12.37161194 -1.23493923 -43.86952457 7.11529736 -68.81298828 25.9453125 C-89.54475603 42.34325211 -104.51042148 63.66108442 -111.47607422 89.26074219 C-111.84732422 90.47761719 -112.21857422 91.69449219 -112.60107422 92.94824219 C-113.76329797 97.34808926 -114.63061746 101.79061443 -115.47607422 106.26074219 C-116.13607422 106.26074219 -116.79607422 106.26074219 -117.47607422 106.26074219 C-115.42192249 76.98908009 -99.60836138 50.18622757 -78.53857422 30.44824219 C-63.19448497 17.28922894 -45.15310084 7.10431797 -25.47607422 2.26074219 C-24.45707031 1.98472168 -24.45707031 1.98472168 -23.41748047 1.703125 C-15.69049647 -0.15939461 -7.89685289 -0.04201313 0 0 Z " fill="#967648" transform="translate(242.47607421875,128.7392578125)"/>
<path d="M0 0 C3.1875 0.4375 3.1875 0.4375 6.0625 2.4375 C8.23718967 5.50765012 8.9417143 7.32021412 8.65234375 11.08203125 C6.46310332 22.17540922 0.3263525 29.99002543 -7.8125 37.4375 C-10.97192217 39.37300187 -13.11054462 39.64316419 -16.8125 39.4375 C-15.62936189 32.96571536 -13.68929464 27.27642666 -10.9375 21.3125 C-10.59847656 20.55324219 -10.25945312 19.79398437 -9.91015625 19.01171875 C-7.7875074 14.32252111 -5.43286707 9.86744791 -2.8125 5.4375 C-3.4725 5.4375 -4.1325 5.4375 -4.8125 5.4375 C-5.039375 6.076875 -5.26625 6.71625 -5.5 7.375 C-7.29815826 11.57070261 -9.55154021 15.47650556 -11.8125 19.4375 C-12.1425 19.4375 -12.4725 19.4375 -12.8125 19.4375 C-12.65880897 12.36771246 -7.61158746 1.18402472 0 0 Z " fill="#8F6D3D" transform="translate(231.8125,245.5625)"/>
<path d="M0 0 C3 1 3 1 4.47265625 3.484375 C5.25962891 5.10085938 5.25962891 5.10085938 6.0625 6.75 C9.85949539 14.21489085 14.7184667 20.53209899 20 27 C20.83724609 28.051875 20.83724609 28.051875 21.69140625 29.125 C38.92055814 50.15677124 67.34822373 63.57636104 94 67 C99.12491264 67.34389931 104.24004594 67.43984808 109.375 67.4375 C110.07698517 67.43823517 110.77897034 67.43897034 111.50222778 67.43972778 C143.37561222 67.35242575 172.43088909 54.50767506 195.1875 32.25 C204.56412815 22.78750248 211.57982955 11.60732804 218 0 C218.99 0.495 218.99 0.495 220 1 C203.49356667 32.38260164 178.91616204 54.59184176 144.9453125 65.5234375 C124.52076169 71.76143899 100.58791749 73.08384528 80 67 C79.32420898 66.81195801 78.64841797 66.62391602 77.95214844 66.43017578 C48.79239218 58.21551562 22.84326063 40.08990499 7 14 C4.45167113 9.43569478 2.18040034 4.75067358 0 0 Z " fill="#977749" transform="translate(136,301)"/>
<path d="M0 0 C2.33944736 0.28730055 4.6739143 0.61936779 7 1 C6.52093559 5.31157973 5.91297202 9.46045458 4.9375 13.6875 C3.65581692 19.77312114 3.82535227 25.80970828 4 32 C1.52050035 31.66940005 0.33696941 31.42974264 -1.234375 29.42578125 C-2.3097192 26.0186958 -2.28916352 22.72200785 -2.25 19.1875 C-2.26160156 18.15786133 -2.26160156 18.15786133 -2.2734375 17.10742188 C-2.25558673 12.39035462 -1.47578642 8.48006591 0 4 C-3.35387679 4.20694133 -6.66645897 4.58045722 -10 5 C-10.84949219 5.05671875 -11.69898438 5.1134375 -12.57421875 5.171875 C-16.23476571 5.74652915 -18.83874867 6.55763751 -21.23242188 9.53076172 C-24.27321619 14.11506323 -26.66627134 19.02834994 -29 24 C-29.55171875 25.155 -30.1034375 26.31 -30.671875 27.5 C-31.82364589 29.98471923 -32.93613751 32.47666787 -34 35 C-35.32 34.67 -36.64 34.34 -38 34 C-38.8046875 32.0546875 -38.8046875 32.0546875 -39 29 C-37.67733448 25.86656074 -35.89894617 23.02133571 -34.125 20.125 C-30.728446 14.54428594 -28.91998166 10.54023323 -28 4 C-25.41298082 1.9746363 -22.72194207 1.64903847 -19.5 1.3125 C-18.7471875 1.22613281 -17.994375 1.13976562 -17.21875 1.05078125 C-15 1 -15 1 -13.04296875 1.50390625 C-10.49509489 2.12260602 -8.41270649 1.90921755 -5.8125 1.625 C-4.93207031 1.53476562 -4.05164063 1.44453125 -3.14453125 1.3515625 C-1.02351147 1.21797825 -1.02351147 1.21797825 0 0 Z " fill="#8C6837" transform="translate(149,263)"/>
<path d="M0 0 C1.32 0.66 2.64 1.32 4 2 C3.43410156 2.97582031 2.86820312 3.95164063 2.28515625 4.95703125 C1.54412818 6.24210525 0.80325061 7.52726604 0.0625 8.8125 C-0.31068359 9.45509766 -0.68386719 10.09769531 -1.06835938 10.75976562 C-2.63466635 13.48316424 -4.00369374 16.01108122 -5 19 C-5.66 19 -6.32 19 -7 19 C-7.33 21.97 -7.66 24.94 -8 28 C-7.48050781 27.03578125 -6.96101562 26.0715625 -6.42578125 25.078125 C-5.72191205 23.80177552 -5.0174536 22.52575086 -4.3125 21.25 C-3.80299805 20.29867188 -3.80299805 20.29867188 -3.28320312 19.328125 C-1.05990297 15.33865182 1.04545457 12.49528026 5 10 C10.01584846 10.09119724 13.65968616 11.5651898 18 14 C18 14.66 18 15.32 18 16 C14.44219804 15.39009109 11.3171411 14.4216319 8 13 C3.24379746 18.1589175 -0.03975867 23.31121339 -3.1875 29.5625 C-3.61224609 30.38685547 -4.03699219 31.21121094 -4.47460938 32.06054688 C-6.68292345 36.35697131 -8.84806483 40.67510098 -11 45 C-14.875 43.125 -14.875 43.125 -16 42 C-15.221035 28.75759501 -10.09209168 9.03336125 0 0 Z " fill="#906E3E" transform="translate(254,244)"/>
<path d="M0 0 C3 1 3 1 4.4375 3.8125 C4.953125 4.864375 5.46875 5.91625 6 7 C6.721875 7.61875 7.44375 8.2375 8.1875 8.875 C10.95095664 12.11491468 10.13318808 14.80457533 10 19 C10.66 19.99 11.32 20.98 12 22 C12.43435184 30.3105985 9.65087012 38.24466369 7 46 C5.76077777 42.28233332 6.42981058 40.56110463 7.4375 36.8125 C7.72496094 35.72582031 8.01242187 34.63914063 8.30859375 33.51953125 C8.53675781 32.68808594 8.76492188 31.85664063 9 31 C7.68 31 6.36 31 5 31 C4.81824219 32.19496094 4.81824219 32.19496094 4.6328125 33.4140625 C2.96836555 43.93848858 2.96836555 43.93848858 1 49 C1.99 49.33 2.98 49.66 4 50 C2.70990357 50.50403768 1.41786211 51.00309926 0.125 51.5 C-0.59429687 51.7784375 -1.31359375 52.056875 -2.0546875 52.34375 C-4 53 -4 53 -6 53 C-6.92844389 48.66726186 -6.92844389 45.33273814 -6 41 C-5.34 41 -4.68 41 -4 41 C-4.33 44.3 -4.66 47.6 -5 51 C-3.68 51 -2.36 51 -1 51 C-0.87882812 50.38253906 -0.75765625 49.76507813 -0.6328125 49.12890625 C0.50074568 43.4000776 1.71369966 37.69647293 3 32 C0.03 32.495 0.03 32.495 -3 33 C-3.33 32.34 -3.66 31.68 -4 31 C2.93 30.01 2.93 30.01 10 29 C9.505 25.04 9.505 25.04 9 21 C7.7625 21.45375 6.525 21.9075 5.25 22.375 C-6.05013783 26.11805978 -18.55122417 27.95503165 -30 24 C-31 21 -31 21 -31 18 C-29.06524329 17.46906676 -27.12706845 16.95057683 -25.1875 16.4375 C-24.10855469 16.14746094 -23.02960938 15.85742188 -21.91796875 15.55859375 C-19 15 -19 15 -16 16 C-18.31 16.99 -20.62 17.98 -23 19 C-17.30948637 18.4618629 -11.65134116 17.8599867 -6 17 C-8.17723742 19.17723742 -9.00485979 19.41899846 -11.9140625 20.0703125 C-12.67460937 20.24433594 -13.43515625 20.41835937 -14.21875 20.59765625 C-15.0128125 20.77167969 -15.806875 20.94570312 -16.625 21.125 C-17.42679688 21.30675781 -18.22859375 21.48851562 -19.0546875 21.67578125 C-21.03499476 22.12370789 -23.0173177 22.56270604 -25 23 C-11.47788209 24.19984603 -11.47788209 24.19984603 0.4296875 18.80078125 C2.84981706 16.02545854 3.94378249 13.52072504 5 10 C4.34 10 3.68 10 3 10 C2.773125 10.61875 2.54625 11.2375 2.3125 11.875 C0.62070165 14.61410209 -0.99244161 15.05024472 -4 16 C-3.55527344 15.57589844 -3.11054688 15.15179688 -2.65234375 14.71484375 C1.29937398 10.6910638 1.29937398 10.6910638 1.9375 5.1875 C1.14248798 2.13775591 1.14248798 2.13775591 0 0 Z " fill="#AE966E" transform="translate(259,170)"/>
<path d="M0 0 C0 2.64 0 5.28 0 8 C-7.76811754 10.37799517 -15.20575858 11.19558733 -23.3125 11.1875 C-24.56836914 11.1862915 -24.56836914 11.1862915 -25.84960938 11.18505859 C-39.93167355 11.04555096 -39.93167355 11.04555096 -46 7 C-46.1875 3.875 -46.1875 3.875 -46 1 C-42.40028807 1 -40.65079052 1.34760464 -37.375 2.5 C-27.4439245 5.56353352 -15.41285746 4.67036482 -5.9375 0.3125 C-3 -1 -3 -1 0 0 Z " fill="#F2EED9" transform="translate(269,191)"/>
<path d="M0 0 C2.8125 -0.3125 2.8125 -0.3125 6 0 C7.875 2.5 7.875 2.5 9 5 C9.66 4.34 10.32 3.68 11 3 C11 5.97 11 8.94 11 12 C9.68 12.33 8.36 12.66 7 13 C6.731875 13.680625 6.46375 14.36125 6.1875 15.0625 C3.88164517 20.76645669 -0.89435849 25.61724987 -6 29 C-6.66 29 -7.32 29 -8 29 C-8.71020222 18.52451733 -5.71540868 8.77723476 0 0 Z " fill="#F1EDD7" transform="translate(283,253)"/>
<path d="M0 0 C0.721875 0.268125 1.44375 0.53625 2.1875 0.8125 C2.29281611 7.31576956 1.90745905 13.60232694 1.1875 20.0625 C0.33600041 27.41808055 0.33600041 27.41808055 0.1875 34.8125 C0.8475 34.8125 1.5075 34.8125 2.1875 34.8125 C2.1875 36.1325 2.1875 37.4525 2.1875 38.8125 C-0.33683607 38.46431571 -1.58434739 38.03350566 -3.43359375 36.2421875 C-5.32108594 32.91635141 -5.17701789 29.90065584 -5.0625 26.1875 C-5.05154297 25.47980469 -5.04058594 24.77210938 -5.02929688 24.04296875 C-4.9153447 18.60299121 -4.53868139 13.20699035 -3.8125 7.8125 C-4.60914063 9.22015625 -4.60914063 9.22015625 -5.421875 10.65625 C-6.13464048 11.8754541 -6.8482249 13.0941797 -7.5625 14.3125 C-7.91054687 14.93253906 -8.25859375 15.55257813 -8.6171875 16.19140625 C-9.671875 17.96875 -9.671875 17.96875 -11.8125 20.8125 C-13.1325 20.8125 -14.4525 20.8125 -15.8125 20.8125 C-16.8025 22.1325 -17.7925 23.4525 -18.8125 24.8125 C-18.4825 20.1925 -18.1525 15.5725 -17.8125 10.8125 C-17.4825 10.8125 -17.1525 10.8125 -16.8125 10.8125 C-16.8125 13.1225 -16.8125 15.4325 -16.8125 17.8125 C-13.8775002 15.31231498 -12.14866007 12.742709 -10.375 9.375 C-5.12324505 -0.34154967 -5.12324505 -0.34154967 0 0 Z " fill="#9E8054" transform="translate(202.8125,243.1875)"/>
<path d="M0 0 C1.79715375 4.58098015 0.04364849 9.11483212 -1.06054688 13.6875 C-1.45414224 15.44220709 -1.73547899 17.22125243 -2 19 C-1.34 19.66 -0.68 20.32 0 21 C-0.375 24.625 -0.375 24.625 -1 28 C-1.99 28 -2.98 28 -4 28 C-4 26.68 -4 25.36 -4 24 C-4.33 24.99 -4.66 25.98 -5 27 C-13.415 27.495 -13.415 27.495 -22 28 C-17.15650782 20.19659593 -11.38349245 13.47171165 -5.35839844 6.58007812 C-3.51282678 4.43332403 -1.74888001 2.22584728 0 0 Z " fill="#F2EED9" transform="translate(156,235)"/>
<path d="M0 0 C0.66 0.33 1.32 0.66 2 1 C1.46930939 4.82097239 0.50298434 7.06171403 -2 10 C-0.35 9.67 1.3 9.34 3 9 C-0.54207157 12.96347558 -4.91649844 14.68812863 -10 16 C-13.42304689 16.03715655 -16.64438794 15.65684321 -20 15 C-20.33 13.02 -20.66 11.04 -21 9 C-19.42040347 7.70376621 -17.83616587 6.41318673 -16.25 5.125 C-15.36828125 4.40570313 -14.4865625 3.68640625 -13.578125 2.9453125 C-8.57878044 -0.82692022 -6.25540237 -1.27424863 0 0 Z " fill="#EFEBD5" transform="translate(322,273)"/>
<path d="M0 0 C0.33 0.66 0.66 1.32 1 2 C0.67 2.66 0.34 3.32 0 4 C0.66 4 1.32 4 2 4 C1.67 7.3 1.34 10.6 1 14 C1.66 14 2.32 14 3 14 C4.89117743 10.97867317 6.54901364 7.85657309 8.24609375 4.72265625 C10 2 10 2 13 1 C11.62248212 4.69003494 9.93981802 8.13304573 8.13061523 11.62231445 C2.92237804 21.39601196 2.92237804 21.39601196 0 32 C0.33 32.99 0.66 33.98 1 35 C-0.485 35.495 -0.485 35.495 -2 36 C-3.22520264 39.00847418 -3.22520264 39.00847418 -4 42 C-6.91517292 40.92598892 -8.77810176 40.22189824 -11 38 C-11.58359169 33.68142148 -10.21867263 31.60534302 -8 28 C-8 26.68 -8 25.36 -8 24 C-6 22.25 -6 22.25 -4 21 C-4.33 23.64 -4.66 26.28 -5 29 C-3.35 21.74 -1.7 14.48 0 7 C-0.99 7.33 -1.98 7.66 -3 8 C-2.45276317 4.62537285 -1.9451 2.91765 0 0 Z " fill="#8E6B3A" transform="translate(217,249)"/>
<path d="M0 0 C1.65 0 3.3 0 5 0 C6.54020346 4.76062888 5.20704297 6.66473702 3 11 C0.48599508 18.90619306 -0.5751143 26.73670572 -1 35 C-2.65 34.67 -4.3 34.34 -6 34 C-6.97476628 28.70446119 -6.92635953 24.19277815 -6.1875 18.875 C-6.10435547 18.18535156 -6.02121094 17.49570312 -5.93554688 16.78515625 C-5.42749517 12.90616297 -4.59828366 9.56540201 -3 6 C-2.64141484 4.67323492 -2.2981424 3.34164079 -2 2 C-1.34 2 -0.68 2 0 2 C0 1.34 0 0.68 0 0 Z " fill="#8E6B3A" transform="translate(372,250)"/>
<path d="M0 0 C0.99 0.33 1.98 0.66 3 1 C2.67 3.97 2.34 6.94 2 10 C1.34 9.34 0.68 8.68 0 8 C-1.8995663 10.18434976 -3.79467211 12.37232283 -5.6875 14.5625 C-6.21794922 15.17158203 -6.74839844 15.78066406 -7.29492188 16.40820312 C-10.7844397 20.45433116 -13.95428274 24.60942057 -17 29 C-17.66 28.34 -18.32 27.68 -19 27 C-21.31 30.3 -23.62 33.6 -26 37 C-27.32 36.67 -28.64 36.34 -30 36 C-29.31292969 35.10796875 -28.62585938 34.2159375 -27.91796875 33.296875 C-27.00779952 32.11459332 -26.097644 30.9323011 -25.1875 29.75 C-24.73568359 29.16347656 -24.28386719 28.57695312 -23.81835938 27.97265625 C-21.5268922 24.99542152 -19.24468847 22.01280445 -17 19 C-16.34 19.33 -15.68 19.66 -15 20 C-12.93495733 17.32657634 -12.93495733 17.32657634 -12.6484375 15.12890625 C-11.70636569 12.03595964 -9.81544616 10.28744467 -7.625 7.9375 C-6.83351562 7.08027344 -6.04203125 6.22304687 -5.2265625 5.33984375 C-3.50747052 3.5332892 -1.77742862 1.74876041 0 0 Z " fill="#BAA581" transform="translate(156,228)"/>
<path d="M0 0 C0.99 0.33 1.98 0.66 3 1 C2.28270441 13.91132066 -5.12778121 22.32779902 -14 31 C-14.66 31.33 -15.32 31.66 -16 32 C-14.50649736 25.52815522 -12.05649715 19.67862484 -9.125 13.75 C-8.79757813 13.07710938 -8.47015625 12.40421875 -8.1328125 11.7109375 C-5.89024678 7.27836619 -3.30600608 3.70917755 0 0 Z " fill="#EEEAD3" transform="translate(232,249)"/>
<path d="M0 0 C5.37305699 -0.35233161 5.37305699 -0.35233161 8 0 C10 2 10 2 11 4 C11.33 3.67 11.66 3.34 12 3 C14.5 2.875 14.5 2.875 17 3 C18 4 18 4 18.1328125 6.03125 C18.13023437 6.8459375 18.12765625 7.660625 18.125 8.5 C18.12886719 9.72203125 18.12886719 9.72203125 18.1328125 10.96875 C18 13 18 13 17 14 C14.625 14.375 14.625 14.375 12 14 C10.1875 11.5 10.1875 11.5 9 9 C7.35 9.66 5.7 10.32 4 11 C4 11.99 4 12.98 4 14 C2.68 14 1.36 14 0 14 C0 9.38 0 4.76 0 0 Z " fill="#98774A" transform="translate(219,305)"/>
<path d="M0 0 C0.33 0.99 0.66 1.98 1 3 C1.928125 3.103125 2.85625 3.20625 3.8125 3.3125 C7.18947356 4.04086685 7.97674956 4.34120403 10 7 C11.75715149 13.8840302 11.29464983 19.75152619 8 26 C5.8125 27.5 5.8125 27.5 4 28 C4.474375 27.2575 4.94875 26.515 5.4375 25.75 C6.79646914 23.35821432 7.42045741 21.63326146 8 19 C7.30132812 19.3609375 6.60265625 19.721875 5.8828125 20.09375 C4.97273438 20.5578125 4.06265625 21.021875 3.125 21.5 C2.22007812 21.9640625 1.31515625 22.428125 0.3828125 22.90625 C-2 24 -2 24 -4 24 C-4 23.34 -4 22.68 -4 22 C-8.455 23.485 -8.455 23.485 -13 25 C-10.69 25 -8.38 25 -6 25 C-10.74705277 28.16470185 -14.31771295 28.10927475 -20 28 C-19.38461538 22.46153846 -19.38461538 22.46153846 -17.4375 20.125 C-16.963125 19.75375 -16.48875 19.3825 -16 19 C-15.34 19.33 -14.68 19.66 -14 20 C-14.99 21.32 -15.98 22.64 -17 24 C-14.69 23.01 -12.38 22.02 -10 21 C-10.33 20.01 -10.66 19.02 -11 18 C-10.319375 18.33 -9.63875 18.66 -8.9375 19 C-4.78550498 20.41344511 -1.11071374 20.9463239 3.00390625 19.1015625 C4.70708542 18.13126649 6.35880167 17.07180299 8 16 C8.04125 14.72125 8.0825 13.4425 8.125 12.125 C8.14820313 11.40570313 8.17140625 10.68640625 8.1953125 9.9453125 C8.18331689 7.76136355 8.18331689 7.76136355 6 6 C4.01178687 5.60235737 2.01055661 5.26224651 0 5 C0.66 5.33 1.32 5.66 2 6 C2 6.66 2 7.32 2 8 C0.35 8 -1.3 8 -3 8 C-2.67 7.01 -2.34 6.02 -2 5 C-5.43230448 5.26393501 -5.43230448 5.26393501 -9 6 C-11.29633824 9.44450737 -11.54016485 11.93812283 -12 16 C-12.33 16 -12.66 16 -13 16 C-13.60218978 8.89416058 -13.60218978 8.89416058 -10.9375 4.9375 C-8 3 -8 3 -4.1875 3.1875 C-3.135625 3.455625 -2.08375 3.72375 -1 4 C-0.67 2.68 -0.34 1.36 0 0 Z " fill="#AB9169" transform="translate(248,152)"/>
<path d="M0 0 C0.33 0.66 0.66 1.32 1 2 C2.65 1.67 4.3 1.34 6 1 C6.33 1.66 6.66 2.32 7 3 C5.85921976 5.2181838 4.66996312 7.31175262 3.375 9.4375 C-0.1895438 15.45501275 -3.26415343 21.55497682 -6 28 C-7.32 27.67 -8.64 27.34 -10 27 C-10.77602802 24.24350265 -11.20973503 22.57355713 -10.21142578 19.84350586 C-9.7936084 19.14104736 -9.37579102 18.43858887 -8.9453125 17.71484375 C-8.49542969 16.93689453 -8.04554687 16.15894531 -7.58203125 15.35742188 C-7.10121094 14.55884766 -6.62039062 13.76027344 -6.125 12.9375 C-5.18603436 11.34484031 -4.25098417 9.74986421 -3.3203125 8.15234375 C-2.90023926 7.45101318 -2.48016602 6.74968262 -2.04736328 6.02709961 C-1.0091578 4.01772429 -0.45046597 2.20864642 0 0 Z " fill="#906E3E" transform="translate(121,270)"/>
<path d="M0 0 C1.66611905 -0.042721 3.33382885 -0.04063832 5 0 C6 1 6 1 6.09765625 3.94140625 C6.08605469 5.13636719 6.07445312 6.33132813 6.0625 7.5625 C6.05347656 8.76003906 6.04445312 9.95757812 6.03515625 11.19140625 C6.02355469 12.11824219 6.01195312 13.04507812 6 14 C6.45375 13.505 6.9075 13.01 7.375 12.5 C9 11 9 11 11 11 C10.48686537 16.13134625 8.94265013 20.74837792 6 25 C5.01 25.33 4.02 25.66 3 26 C0.97814557 24.33557103 0.07921157 23.47015897 -0.36328125 20.84375 C-0.34652344 20.0703125 -0.32976562 19.296875 -0.3125 18.5 C-0.30863281 17.7265625 -0.30476562 16.953125 -0.30078125 16.15625 C0 14 0 14 2 11 C2.33 11.99 2.66 12.98 3 14 C3.33 12.02 3.66 10.04 4 8 C3.34 8 2.68 8 2 8 C0.74335022 5.09399739 0 3.20395416 0 0 Z " fill="#8D6938" transform="translate(179,252)"/>
<path d="M0 0 C0.66 0.66 1.32 1.32 2 2 C1.67515625 2.92232422 1.67515625 2.92232422 1.34375 3.86328125 C1.0653125 4.67152344 0.786875 5.47976562 0.5 6.3125 C0.2215625 7.11300781 -0.056875 7.91351563 -0.34375 8.73828125 C-1.13933107 11.08769422 -1.13933107 11.08769422 -1 14 C-0.34 14 0.32 14 1 14 C0.36883336 21.44776632 -0.77523357 28.84668403 -3 36 C-3.99 36.495 -3.99 36.495 -5 37 C-4.67 34.69 -4.34 32.38 -4 30 C-6.20801257 31.83821244 -6.20801257 31.83821244 -6.5 34.5 C-7 37 -7 37 -9 39 C-9.28713808 33.0897411 -8.24836615 28.01529349 -6.75 22.3125 C-6.52546143 21.43561523 -6.30092285 20.55873047 -6.06958008 19.65527344 C-4.33498533 12.99648977 -2.35350475 6.46885104 0 0 Z " fill="#A4875D" transform="translate(216,242)"/>
<path d="M0 0 C1.32 0.66 2.64 1.32 4 2 C3.43410156 2.97582031 2.86820312 3.95164063 2.28515625 4.95703125 C1.54412818 6.24210525 0.80325061 7.52726604 0.0625 8.8125 C-0.31068359 9.45509766 -0.68386719 10.09769531 -1.06835938 10.75976562 C-2.63466635 13.48316424 -4.00369374 16.01108122 -5 19 C-5.66 19 -6.32 19 -7 19 C-7.33 21.64 -7.66 24.28 -8 27 C-8.66 26.67 -9.32 26.34 -10 26 C-10.66 28.64 -11.32 31.28 -12 34 C-13.125 32.46875 -13.125 32.46875 -14 30 C-13.47500817 27.3511776 -12.86215538 25.0361388 -12 22.5 C-11.76941895 21.79601074 -11.53883789 21.09202148 -11.30126953 20.36669922 C-5.67929653 3.78619769 -5.67929653 3.78619769 0 0 Z " fill="#906D3D" transform="translate(254,244)"/>
<path d="M0 0 C2.66666667 0 5.33333333 0 8 0 C9.2375 -0.061875 9.2375 -0.061875 10.5 -0.125 C13 0 13 0 15 2 C15.25288404 5.20319784 14.91026797 7.92784561 14 11 C11.125 11.1875 11.125 11.1875 8 11 C6 8 6 8 6 4 C5.34 4 4.68 4 4 4 C4 6.31 4 8.62 4 11 C2.68 11 1.36 11 0 11 C0 7.37 0 3.74 0 0 Z " fill="#977749" transform="translate(251,308)"/>
<path d="M0 0 C0.66 0.33 1.32 0.66 2 1 C-8.5445712 21.04770328 -21.36352434 36.19543907 -39.62109375 49.69140625 C-40.2236499 50.13685791 -40.82620605 50.58230957 -41.44702148 51.04125977 C-43 52 -43 52 -45 52 C-45 51.34 -45 50.68 -45 50 C-43.42283761 48.74966403 -41.78498678 47.57557958 -40.125 46.4375 C-34.3473247 42.33817253 -29.15311565 37.85103646 -24 33 C-23.39671875 32.46117187 -22.7934375 31.92234375 -22.171875 31.3671875 C-12.85393501 22.70237414 -6.10806176 11.04305206 0 0 Z " fill="#977748" transform="translate(354,301)"/>
<path d="M0 0 C-0.66 1.65 -1.32 3.3 -2 5 C-1.34 5.33 -0.68 5.66 0 6 C-0.33 9.96 -0.66 13.92 -1 18 C-1.33 18 -1.66 18 -2 18 C-2.33 15.03 -2.66 12.06 -3 9 C-3.66 9 -4.32 9 -5 9 C-6.84905541 12.06050551 -8.48536783 15.21003923 -10.1484375 18.375 C-10.75945312 19.24125 -11.37046875 20.1075 -12 21 C-13.32 21 -14.64 21 -16 21 C-16.99 22.32 -17.98 23.64 -19 25 C-18.67 20.38 -18.34 15.76 -18 11 C-17.67 11 -17.34 11 -17 11 C-17 13.31 -17 15.62 -17 18 C-14.0650002 15.49981498 -12.33616007 12.930209 -10.5625 9.5625 C-5.43409653 0 -5.43409653 0 0 0 Z " fill="#947243" transform="translate(203,243)"/>
<path d="M0 0 C0.66 0 1.32 0 2 0 C1.49233162 4.44209835 0.11355548 6.80450885 -3 10 C-8.55194847 13.84474195 -12.51047821 14.58417298 -19.1875 14.375 C-19.98091797 14.37371094 -20.77433594 14.37242187 -21.59179688 14.37109375 C-25.50909034 14.31189032 -28.64332338 14.26191147 -32 12 C-30.25976562 11.77957031 -30.25976562 11.77957031 -28.484375 11.5546875 C-18.81706805 10.21154537 -10.21846148 8.63551644 -2 3 C-1.34 2.01 -0.68 1.02 0 0 Z " fill="#EFEBD5" transform="translate(262,180)"/>
<path d="M0 0 C0.99 0 1.98 0 3 0 C3 0.66 3 1.32 3 2 C3.66 2 4.32 2 5 2 C4.7834375 3.07314453 4.7834375 3.07314453 4.5625 4.16796875 C3.13013204 11.85699952 2.7732437 19.18950511 3 27 C0.53098528 26.67079804 -0.66147497 26.42609302 -2.23828125 24.44140625 C-3.32712805 20.95151264 -3.24933699 17.55333646 -3.1875 13.9375 C-3.18685547 13.21755859 -3.18621094 12.49761719 -3.18554688 11.75585938 C-3.15902862 8.58250863 -3.00983535 6.02950606 -2 3 C-1.34 3 -0.68 3 0 3 C0 2.01 0 1.02 0 0 Z " fill="#9F8155" transform="translate(150,268)"/>
<path d="M0 0 C2.31 0 4.62 0 7 0 C7 6.27 7 12.54 7 19 C5.35 19 3.7 19 2 19 C0.26044666 12.56986533 -0.24991456 6.65050424 0 0 Z " fill="#EFEAD4" transform="translate(239,203)"/>
<path d="M0 0 C2.31 0 4.62 0 7 0 C7.24794402 6.5705166 6.32388229 12.56971459 5 19 C3.35 19 1.7 19 0 19 C0 12.73 0 6.46 0 0 Z " fill="#F3EFDA" transform="translate(247,203)"/>
<path d="M0 0 C0.66 0 1.32 0 2 0 C1.34 2.31 0.68 4.62 0 7 C0.99 6.67 1.98 6.34 3 6 C2.42118962 9.50373216 1.2149208 11.16793567 -1.3125 13.625 C-1.90675781 14.21539062 -2.50101563 14.80578125 -3.11328125 15.4140625 C-6.70018963 18.42914491 -9.32781202 19.259566 -14 19 C-14 18.01 -14 17.02 -14 16 C-13.34 16 -12.68 16 -12 16 C-11.76410156 15.44570313 -11.52820313 14.89140625 -11.28515625 14.3203125 C-9.6873545 11.43552758 -7.68148991 9.28827968 -5.4375 6.875 C-2.36280814 3.68492491 -2.36280814 3.68492491 0 0 Z " fill="#957445" transform="translate(229,266)"/>
<path d="M0 0 C-0.53951066 6.68993219 -1.88706171 12.63460728 -4 19 C-5.32 19 -6.64 19 -8 19 C-7.505 10.09 -7.505 10.09 -7 1 C-4 0 -4 0 0 0 Z " fill="#F0EDD7" transform="translate(262,202)"/>
<path d="M0 0 C3 1 3 1 4.4375 3.8125 C4.953125 4.864375 5.46875 5.91625 6 7 C6.721875 7.66 7.44375 8.32 8.1875 9 C10 11 10 11 10.75 13.9375 C9.86826249 17.53792815 9.18089273 17.95293023 6.1875 19.9375 C4.04296875 21.21484375 4.04296875 21.21484375 2 22 C1.01 21.67 0.02 21.34 -1 21 C-0.65066406 20.45730469 -0.30132812 19.91460937 0.05859375 19.35546875 C0.51363281 18.64003906 0.96867187 17.92460937 1.4375 17.1875 C1.88996094 16.47980469 2.34242188 15.77210938 2.80859375 15.04296875 C4.14086339 12.91865448 4.14086339 12.91865448 5 10 C4.34 10 3.68 10 3 10 C2.773125 10.61875 2.54625 11.2375 2.3125 11.875 C0.62070165 14.61410209 -0.99244161 15.05024472 -4 16 C-3.55527344 15.57589844 -3.11054688 15.15179688 -2.65234375 14.71484375 C1.29937398 10.6910638 1.29937398 10.6910638 1.9375 5.1875 C1.14248798 2.13775591 1.14248798 2.13775591 0 0 Z " fill="#DDD3B8" transform="translate(259,170)"/>
<path d="M0 0 C1.67542976 0.28604898 3.34385343 0.61781233 5 1 C5.21203451 6.83094895 4.96947414 12.44413776 3 18 C0.82510133 19.08744934 -0.58411219 19 -3 19 C-3.042721 17.33388095 -3.04063832 15.66617115 -3 14 C-2.67 13.67 -2.34 13.34 -2 13 C-1.76578366 11.54843703 -1.58661596 10.08775657 -1.4375 8.625 C-1.35371094 7.83351562 -1.26992187 7.04203125 -1.18359375 6.2265625 C-0.95891137 3.87404428 -0.95891137 3.87404428 -1 1 C-0.67 0.67 -0.34 0.34 0 0 Z " fill="#8E6B3B" transform="translate(159,225)"/>
<path d="M0 0 C1.98 0 3.96 0 6 0 C6.33808686 2.06172613 6.67027361 4.1244203 7 6.1875 C7.185625 7.33605469 7.37125 8.48460937 7.5625 9.66796875 C7.93489477 12.50415393 8.08596021 15.14719564 8 18 C6.68 18 5.36 18 4 18 C3.32678716 15.75194998 2.66165877 13.50147776 2 11.25 C1.62875 9.99703125 1.2575 8.7440625 0.875 7.453125 C0 4 0 4 0 0 Z " fill="#F2EED9" transform="translate(231,203)"/>
<path d="M0 0 C-3.465 1.485 -3.465 1.485 -7 3 C-1.30948637 2.4618629 4.34865884 1.8599867 10 1 C7.82276258 3.17723742 6.99514021 3.41899846 4.0859375 4.0703125 C2.94511719 4.33134766 2.94511719 4.33134766 1.78125 4.59765625 C0.9871875 4.77167969 0.193125 4.94570312 -0.625 5.125 C-1.82769531 5.39763672 -1.82769531 5.39763672 -3.0546875 5.67578125 C-5.03499476 6.12370789 -7.0173177 6.56270604 -9 7 C-4.71 7.33 -0.42 7.66 4 8 C4 8.66 4 9.32 4 10 C-2.34833705 10.23415997 -7.95679072 10.08765411 -14 8 C-15 5 -15 5 -15 2 C-13.06524329 1.46906676 -11.12706845 0.95057683 -9.1875 0.4375 C-8.10855469 0.14746094 -7.02960938 -0.14257812 -5.91796875 -0.44140625 C-3 -1 -3 -1 0 0 Z " fill="#B59E79" transform="translate(243,186)"/>
<path d="M0 0 C3.4375 1.5625 3.4375 1.5625 6 3 C6 3.66 6 4.32 6 5 C2.44219804 4.39009109 -0.6828589 3.4216319 -4 2 C-4.39832031 2.47050781 -4.79664063 2.94101562 -5.20703125 3.42578125 C-5.73683594 4.04839844 -6.26664062 4.67101562 -6.8125 5.3125 C-7.33457031 5.92738281 -7.85664063 6.54226563 -8.39453125 7.17578125 C-12.89789345 12.29274025 -12.89789345 12.29274025 -17 13 C-13.83849906 4.04241402 -10.06068485 -2.42844117 0 0 Z " fill="#927040" transform="translate(266,255)"/>
<path d="M0 0 C0.66 0 1.32 0 2 0 C2.48306767 2.68312585 2.30157863 4.47445897 0.93945312 6.84814453 C-0.56945586 8.96713709 -2.13963018 11.01957736 -3.75 13.0625 C-4.28882813 13.76955078 -4.82765625 14.47660156 -5.3828125 15.20507812 C-8.06800184 18.69254965 -10.77546288 21.98677963 -14 25 C-13.41654929 20.46109667 -11.52741845 16.95169438 -9.25 13.0625 C-8.91484375 12.46759766 -8.5796875 11.87269531 -8.234375 11.25976562 C-5.85218781 7.13154351 -3.23545105 3.50864311 0 0 Z " fill="#ECE6CF" transform="translate(367,251)"/>
<path d="M0 0 C2.35546875 0.5703125 2.35546875 0.5703125 5 2 C6.36328125 5.1171875 6.36328125 5.1171875 7.3125 8.875 C7.63863281 10.10992187 7.96476563 11.34484375 8.30078125 12.6171875 C9 16 9 16 9 20 C7.35 19.67 5.7 19.34 4 19 C3.32900016 16.39688008 2.66304662 13.79264602 2 11.1875 C1.80921875 10.44951172 1.6184375 9.71152344 1.421875 8.95117188 C0.64737086 5.89464659 0 3.16626522 0 0 Z " fill="#E9E3CB" transform="translate(224,200)"/>
<path d="M0 0 C-0.33 0.66 -0.66 1.32 -1 2 C-2.32 2 -3.64 2 -5 2 C-5 2.66 -5 3.32 -5 4 C-6.98 4.99 -6.98 4.99 -9 6 C-8.484375 6.53625 -7.96875 7.0725 -7.4375 7.625 C-6 10 -6 10 -6 13.0625 C-7 16 -7 16 -9.4375 17.9375 C-10.283125 18.288125 -11.12875 18.63875 -12 19 C-12.66 18.67 -13.32 18.34 -14 18 C-14 17.34 -14 16.68 -14 16 C-13.360625 15.54625 -12.72125 15.0925 -12.0625 14.625 C-9.7323843 12.78915127 -9.39598702 11.87090587 -9 9 C-9.66 9 -10.32 9 -11 9 C-11.99 6.69 -12.98 4.38 -14 2 C-9.07262981 0.02905192 -5.21979128 -0.1799928 0 0 Z " fill="#9A7B4D" transform="translate(333,265)"/>
<path d="M0 0 C1.32 0 2.64 0 4 0 C3.48914188 6.43681228 2.27057103 11.95942424 0 18 C-1.65 18.33 -3.3 18.66 -5 19 C-3.35 12.73 -1.7 6.46 0 0 Z " fill="#EDE7D0" transform="translate(264,201)"/>
<path d="M0 0 C3 3.625 3 3.625 3 7 C3.66 7 4.32 7 5 7 C5.125 9.875 5.125 9.875 5 13 C4.34 13.66 3.68 14.32 3 15 C2.34 12.36 1.68 9.72 1 7 C0.01 7.495 0.01 7.495 -1 8 C-1.66 7.67 -2.32 7.34 -3 7 C-3.2475 7.70125 -3.495 8.4025 -3.75 9.125 C-5.16088026 12.37002459 -6.97895398 15.10316737 -9 18 C-9.99 17.67 -10.98 17.34 -12 17 C-12 16.34 -12 15.68 -12 15 C-10.86356693 13.8980043 -9.72513727 12.79801131 -8.578125 11.70703125 C-5.29029035 8.15063585 -2.70109524 4.00883011 0 0 Z " fill="#AA8F66" transform="translate(178,253)"/>
<path d="M0 0 C0.6875 1.75 0.6875 1.75 1 4 C0.01 5.32 -0.98 6.64 -2 8 C2.95 8 7.9 8 13 8 C12.01 9.485 12.01 9.485 11 11 C8.44779306 11.41403125 6.12760984 11.64865041 3.5625 11.75 C2.88123047 11.79253906 2.19996094 11.83507812 1.49804688 11.87890625 C-1.66386685 12.04613773 -3.96958112 12.01013963 -7 11 C-5.20974068 7.12110481 -3.03770253 3.03770253 0 0 Z " fill="#B09770" transform="translate(137,254)"/>
<path d="M0 0 C0.66 0 1.32 0 2 0 C2.23517658 7.05529738 1.98950129 14.18037259 0 21 C-0.99 21.66 -1.98 22.32 -3 23 C-4.16297973 20.67404054 -4.16600691 19.21276769 -4.1875 16.625 C-4.20167969 15.85414063 -4.21585938 15.08328125 -4.23046875 14.2890625 C-3.97801607 11.78165112 -3.25193467 10.16738098 -2 8 C-1.67 8.99 -1.34 9.98 -1 11 C-0.67 9.02 -0.34 7.04 0 5 C-0.99 4.67 -1.98 4.34 -3 4 C-1.625 2 -1.625 2 0 0 Z " fill="#927040" transform="translate(203,244)"/>
<path d="M0 0 C1.8871875 0.433125 1.8871875 0.433125 3.8125 0.875 C5.54164675 1.25009183 7.27081424 1.62508804 9 2 C10.12535156 2.26876953 10.12535156 2.26876953 11.2734375 2.54296875 C21.34440866 4.71034604 31.73904824 4.66597934 42 5 C42 5.33 42 5.66 42 6 C26.57287304 7.27277698 13.90748889 6.32128475 -1 2 C-0.67 1.34 -0.34 0.68 0 0 Z " fill="#A2855A" transform="translate(210,364)"/>
<path d="M0 0 C0.66 0.66 1.32 1.32 2 2 C1.67386719 2.99257812 1.34773437 3.98515625 1.01171875 5.0078125 C-2.16204515 14.81950603 -4.78471833 24.57211459 -6.453125 34.76953125 C-7 37 -7 37 -9 39 C-9.28713808 33.0897411 -8.24836615 28.01529349 -6.75 22.3125 C-6.52546143 21.43561523 -6.30092285 20.55873047 -6.06958008 19.65527344 C-4.33498533 12.99648977 -2.35350475 6.46885104 0 0 Z " fill="#B7A17B" transform="translate(216,242)"/>
<path d="M0 0 C1.32 0.33 2.64 0.66 4 1 C3.34 1 2.68 1 2 1 C2.28875 2.04800781 2.5775 3.09601563 2.875 4.17578125 C3.25019793 5.55463366 3.62518705 6.93354289 4 8.3125 C4.19078125 9.00279297 4.3815625 9.69308594 4.578125 10.40429688 C5.37716184 13.35787949 6 15.92559219 6 19 C7.32 19 8.64 19 10 19 C9.34 13.06 8.68 7.12 8 1 C8.66 1 9.32 1 10 1 C10.66 7.27 11.32 13.54 12 20 C7.59232396 21.10191901 6.1077065 20.58706842 2 19 C2.66 18.67 3.32 18.34 4 18 C3.71125 16.86820313 3.4225 15.73640625 3.125 14.5703125 C2.74987608 13.08857303 2.37488286 11.60680047 2 10.125 C1.80921875 9.37863281 1.6184375 8.63226563 1.421875 7.86328125 C0 2.2265625 0 2.2265625 0 0 Z " fill="#B19972" transform="translate(229,202)"/>
<path d="M0 0 C0.33 0.66 0.66 1.32 1 2 C2.65 1.67 4.3 1.34 6 1 C6.33 1.66 6.66 2.32 7 3 C5.9609375 5.34765625 5.9609375 5.34765625 4.375 8.0625 C3.86710937 8.96097656 3.35921875 9.85945313 2.8359375 10.78515625 C1 13 1 13 -1.7109375 13.80859375 C-2.46632813 13.87175781 -3.22171875 13.93492187 -4 14 C-3.46148032 8.72250715 -2.22656164 4.74354436 0 0 Z " fill="#98784B" transform="translate(121,270)"/>
<path d="M0 0 C11.97912507 5.24927953 20.82926719 20.53446204 26 32 C25.01 32.495 25.01 32.495 24 33 C23.5875 32.24976563 23.175 31.49953125 22.75 30.7265625 C16.87585842 20.3156955 9.77675235 11.6923957 1.6875 2.93359375 C0 1 0 1 0 0 Z " fill="#957445" transform="translate(327,161)"/>
<path d="M0 0 C-0.33 0.66 -0.66 1.32 -1 2 C-3.4370717 2.67421527 -5.76677275 3.19005309 -8.25 3.625 C-8.98984131 3.75688721 -9.72968262 3.88877441 -10.49194336 4.0246582 C-19.95210272 5.53636841 -29.45256315 5.25198514 -39 5 C-39 4.67 -39 4.34 -39 4 C-38.32533691 3.9498877 -37.65067383 3.89977539 -36.95556641 3.84814453 C-33.84486184 3.61344467 -30.73496663 3.36927639 -27.625 3.125 C-26.56410156 3.04636719 -25.50320312 2.96773438 -24.41015625 2.88671875 C-18.56822431 2.4207978 -12.94419458 1.72346642 -7.23193359 0.39794922 C-4.78237753 -0.03880164 -2.48311806 -0.0650718 0 0 Z " fill="#957446" transform="translate(277,366)"/>
<path d="M0 0 C0.99 0.33 1.98 0.66 3 1 C2.52949219 1.66386719 2.05898437 2.32773438 1.57421875 3.01171875 C0.95160156 3.89472656 0.32898438 4.77773437 -0.3125 5.6875 C-0.92738281 6.55761719 -1.54226562 7.42773438 -2.17578125 8.32421875 C-3.37196749 10.07879599 -4.51680413 11.86974353 -5.6015625 13.6953125 C-7.1266649 16.20874942 -8.85921274 17.99732804 -11 20 C-11.66 20.66 -12.32 21.32 -13 22 C-12.67 17.38 -12.34 12.76 -12 8 C-11.67 8 -11.34 8 -11 8 C-11 10.31 -11 12.62 -11 15 C-7.31342496 11.85958422 -5.35341814 8.25082077 -3.1484375 4.0234375 C-2 2 -2 2 0 0 Z " fill="#C4B290" transform="translate(197,246)"/>
<path d="M0 0 C0.66 0.33 1.32 0.66 2 1 C1.9278125 1.57105469 1.855625 2.14210938 1.78125 2.73046875 C0.96782223 9.83666412 0.89918057 16.85302234 1 24 C-0.9375 23.6875 -0.9375 23.6875 -3 23 C-4.08622755 19.74131735 -3.91122669 18.60795726 -3.22265625 15.33203125 C-3.03896484 14.43935547 -2.85527344 13.54667969 -2.66601562 12.62695312 C-2.36727539 11.23379883 -2.36727539 11.23379883 -2.0625 9.8125 C-1.86720703 8.87212891 -1.67191406 7.93175781 -1.47070312 6.96289062 C-0.98734119 4.64039546 -0.4968617 2.31963794 0 0 Z " fill="#8E6B3A" transform="translate(152,271)"/>
<path d="M0 0 C1.2065625 0.0309375 1.2065625 0.0309375 2.4375 0.0625 C2.65924933 1.51885371 2.86448698 2.97772956 3.0625 4.4375 C3.17851562 5.24960937 3.29453125 6.06171875 3.4140625 6.8984375 C3.42179688 7.61257813 3.42953125 8.32671875 3.4375 9.0625 C1.4375 11.0625 1.4375 11.0625 -1.1875 11.1875 C-1.97125 11.14625 -2.755 11.105 -3.5625 11.0625 C-3.5625 10.0725 -3.5625 9.0825 -3.5625 8.0625 C-2.5725 8.0625 -1.5825 8.0625 -0.5625 8.0625 C-0.5625 7.4025 -0.5625 6.7425 -0.5625 6.0625 C-1.2225 6.0625 -1.8825 6.0625 -2.5625 6.0625 C-2.94468767 4.40635343 -3.27645102 2.73792976 -3.5625 1.0625 C-2.5625 0.0625 -2.5625 0.0625 0 0 Z " fill="#8F6C3C" transform="translate(241.5625,307.9375)"/>
<path d="M0 0 C2 1.4375 2 1.4375 4 4 C4.46437239 7.04001922 4.50407331 9.96383751 4 13 C3.34 13.66 2.68 14.32 2 15 C1.3574765 17.06874034 1.3574765 17.06874034 1 19 C-0.98 19.33 -2.96 19.66 -5 20 C-3.125 15.25 -3.125 15.25 -2 13 C-1.01 12.67 -0.02 12.34 1 12 C1.33 9.03 1.66 6.06 2 3 C1.34 3 0.68 3 0 3 C0 2.01 0 1.02 0 0 Z " fill="#A08357" transform="translate(292,253)"/>
<path d="M0 0 C5.47114223 1.18169228 10.78816132 2.70907941 16.109375 4.43359375 C16.77678711 4.64701416 17.44419922 4.86043457 18.13183594 5.08032227 C22.92598043 6.69180462 22.92598043 6.69180462 24.046875 8.93359375 C18.87918909 8.20364775 13.98812257 6.87027271 8.984375 5.43359375 C2.07439622 3.44286414 2.07439622 3.44286414 -4.953125 1.93359375 C-1.953125 -0.06640625 -1.953125 -0.06640625 0 0 Z " fill="#98784A" transform="translate(268.953125,130.06640625)"/>
<path d="M0 0 C1.65 0 3.3 0 5 0 C4.814375 0.639375 4.62875 1.27875 4.4375 1.9375 C4.293125 2.618125 4.14875 3.29875 4 4 C4.33 4.33 4.66 4.66 5 5 C5.125 7.5 5.125 7.5 5 10 C4 11 4 11 1.4375 11.0625 C0.633125 11.041875 -0.17125 11.02125 -1 11 C-1 10.01 -1 9.02 -1 8 C-0.01 8 0.98 8 2 8 C2 7.34 2 6.68 2 6 C1.01 5.67 0.02 5.34 -1 5 C-0.67 3.35 -0.34 1.7 0 0 Z " fill="#8D6938" transform="translate(268,308)"/>
<path d="M0 0 C-1.39134418 4.42700422 -3.47884142 6.99413292 -7 10 C-7.99 10 -8.98 10 -10 10 C-9.69481346 6.43949035 -8.99971192 4.99964963 -6.6875 2.1875 C-4 0 -4 0 0 0 Z " fill="#947243" transform="translate(349,239)"/>
<path d="M0 0 C0.66 0 1.32 0 2 0 C1.04476793 2.64525803 0.14300693 4.81123085 -1.5625 7.0625 C-3.05703799 9.07687729 -3.56338212 10.55493989 -4 13 C-5.32 13 -6.64 13 -8 13 C-8 13.66 -8 14.32 -8 15 C-8.99 15.66 -9.98 16.32 -11 17 C-11.99 16.67 -12.98 16.34 -14 16 C-13.34 16 -12.68 16 -12 16 C-11.76410156 15.44570313 -11.52820313 14.89140625 -11.28515625 14.3203125 C-9.6873545 11.43552758 -7.68148991 9.28827968 -5.4375 6.875 C-2.36280814 3.68492491 -2.36280814 3.68492491 0 0 Z " fill="#C4B291" transform="translate(229,266)"/>
<path d="M0 0 C0.99 0 1.98 0 3 0 C3.85743651 4.39436211 4.08948558 8.52572076 4 13 C2.68 12.67 1.36 12.34 0 12 C-0.19573608 10.56359829 -0.38127816 9.12580496 -0.5625 7.6875 C-0.66691406 6.88699219 -0.77132812 6.08648437 -0.87890625 5.26171875 C-1 3 -1 3 0 0 Z " fill="#8D6938" transform="translate(246,306)"/>
<path d="M0 0 C0.66 0.33 1.32 0.66 2 1 C1 4 1 4 -1 5.4375 C-3.29189635 7.22804402 -3.61121002 8.18127263 -4 11 C-3.401875 11.12375 -2.80375 11.2475 -2.1875 11.375 C0 12 0 12 3 14 C-3.39075249 14.36174071 -3.39075249 14.36174071 -6 12.8125 C-7 11 -7 11 -7.0625 8.6875 C-5.52724581 4.80421 -3.07155133 2.81014271 0 0 Z " fill="#9F8256" transform="translate(305,275)"/>
<path d="M0 0 C3 1 3 1 4.5625 4 C5.036875 4.99 5.51125 5.98 6 7 C6.66 7.33 7.32 7.66 8 8 C6.90931332 11.77545388 6.0916909 14.47043472 3 17 C3.66 14.69 4.32 12.38 5 10 C4.34 10 3.68 10 3 10 C2.773125 10.61875 2.54625 11.2375 2.3125 11.875 C0.62070165 14.61410209 -0.99244161 15.05024472 -4 16 C-3.55527344 15.57589844 -3.11054688 15.15179688 -2.65234375 14.71484375 C1.29937398 10.6910638 1.29937398 10.6910638 1.9375 5.1875 C1.14248798 2.13775591 1.14248798 2.13775591 0 0 Z " fill="#AE956D" transform="translate(259,170)"/>
<path d="M0 0 C0.66 0 1.32 0 2 0 C0.43358249 4.30764815 -1.68336156 8.06171464 -4 12 C-4.99 12 -5.98 12 -7 12 C-7.66 13.32 -8.32 14.64 -9 16 C-9.66 15.67 -10.32 15.34 -11 15 C-9.72954304 13.24972675 -8.45861894 11.49979256 -7.1875 9.75 C-6.12595703 8.28820312 -6.12595703 8.28820312 -5.04296875 6.796875 C-4.36878906 5.87390625 -3.69460938 4.9509375 -3 4 C-2.45988281 3.22140625 -1.91976563 2.4428125 -1.36328125 1.640625 C-0.68845703 0.82851563 -0.68845703 0.82851563 0 0 Z " fill="#A4875C" transform="translate(368,256)"/>
<path d="M0 0 C2.38022734 0.57702481 3.75956679 0.24022853 6.0625 -0.5 C3.69328826 2.21212397 1.39143261 3.42238997 -1.9375 4.75 C-3.236875 5.28367187 -3.236875 5.28367187 -4.5625 5.828125 C-6.9375 6.5 -6.9375 6.5 -9.9375 5.5 C-3.52724359 -0.91025641 -3.52724359 -0.91025641 0 0 Z " fill="#C6B493" transform="translate(318.9375,282.5)"/>
<path d="M0 0 C2.31 0.33 4.62 0.66 7 1 C6.67 2.98 6.34 4.96 6 7 C5.34 7 4.68 7 4 7 C4 6.34 4 5.68 4 5 C3.01 5 2.02 5 1 5 C0.67 5.99 0.34 6.98 0 8 C0 6.68 0 5.36 0 4 C-1.65 4 -3.3 4 -5 4 C-4.0409375 3.8453125 -4.0409375 3.8453125 -3.0625 3.6875 C-2.381875 3.460625 -1.70125 3.23375 -1 3 C-0.67 2.01 -0.34 1.02 0 0 Z " fill="#927041" transform="translate(149,263)"/>
<path d="M0 0 C0 0.66 0 1.32 0 2 C-2.56213554 2.64730804 -5.12468485 3.29289288 -7.6875 3.9375 C-8.40873047 4.11990234 -9.12996094 4.30230469 -9.87304688 4.49023438 C-11.27919077 4.84337553 -12.68656334 5.19166612 -14.09521484 5.53466797 C-15.69864958 5.9263812 -17.29723324 6.33787586 -18.89453125 6.75390625 C-19.93673828 6.87572266 -19.93673828 6.87572266 -21 7 C-21.66 6.34 -22.32 5.68 -23 5 C-20.95990245 4.34922704 -18.91784331 3.70460176 -16.875 3.0625 C-15.16957031 2.52302734 -15.16957031 2.52302734 -13.4296875 1.97265625 C-8.84710045 0.67303874 -4.76558164 0 0 0 Z " fill="#9E8054" transform="translate(227,130)"/>
<path d="M0 0 C2.09375 3.609375 2.09375 3.609375 1.25 7.125 C1.05148438 7.71667969 0.85296875 8.30835938 0.6484375 8.91796875 C-0.57928918 12.86000681 -1.2335116 16.94739642 -2 21 C-2.66 21 -3.32 21 -4 21 C-3.39700836 13.76410027 -1.8849413 7.00629124 0 0 Z " fill="#9F8155" transform="translate(129,214)"/>
<path d="M0 0 C0.66 0 1.32 0 2 0 C3.25 6.625 3.25 6.625 1 10 C0.67 9.67 0.34 9.34 0 9 C-0.66 11.64 -1.32 14.28 -2 17 C-3.1171875 15.421875 -3.1171875 15.421875 -4 13 C-3.3203125 9.765625 -3.3203125 9.765625 -2.125 6.25 C-1.73570312 5.07953125 -1.34640625 3.9090625 -0.9453125 2.703125 C-0.63335937 1.81109375 -0.32140625 0.9190625 0 0 Z " fill="#AF976F" transform="translate(244,261)"/>
<path d="M0 0 C0 3.98189489 -1.47178333 4.98018565 -4 8 C-5.37780167 9.97360779 -6.68630267 11.98253624 -8 14 C-9.32 13.67 -10.64 13.34 -12 13 C-10.76056233 11.20101037 -9.50803104 9.41103677 -8.25 7.625 C-7.55390625 6.62726563 -6.8578125 5.62953125 -6.140625 4.6015625 C-4.13277624 2.16136674 -2.90956826 1.08781156 0 0 Z " fill="#CBBB9B" transform="translate(138,251)"/>
<path d="M0 0 C0.33 0.66 0.66 1.32 1 2 C1.66 2.33 2.32 2.66 3 3 C2.5359375 3.7734375 2.5359375 3.7734375 2.0625 4.5625 C0.70940713 7.66665423 0.38640576 10.65115007 0 14 C-0.33 13.34 -0.66 12.68 -1 12 C-1.66 12 -2.32 12 -3 12 C-2.88601335 10.37419034 -2.75844341 8.74932843 -2.625 7.125 C-2.55539063 6.22007812 -2.48578125 5.31515625 -2.4140625 4.3828125 C-2 2 -2 2 0 0 Z " fill="#B9A47F" transform="translate(157,241)"/>
<path d="M0 0 C0 3 0 3 -2 6 C-1.67 6.99 -1.34 7.98 -1 9 C-3.17424117 11.50037734 -4.73045798 12.43628586 -8 13 C-6.24385848 8.02426569 -3.74380523 3.74380523 0 0 Z " fill="#A78C62" transform="translate(257,255)"/>
<path d="M0 0 C0.99 0.33 1.98 0.66 3 1 C0.36 5.62 -2.28 10.24 -5 15 C-5.33 15 -5.66 15 -6 15 C-5.61471495 8.83543922 -3.52913975 5.01372252 0 0 Z " fill="#A88D64" transform="translate(225,250)"/>
<path d="M0 0 C2 1 2 1 2.6328125 2.8203125 C3.6669317 7.66261668 4.2106585 12.04952534 4 17 C3.34 17 2.68 17 2 17 C0.7017874 11.23918159 -0.25706972 5.91260345 0 0 Z " fill="#9E8054" transform="translate(362,218)"/>
<path d="M0 0 C0.33 0.66 0.66 1.32 1 2 C1.66 2 2.32 2 3 2 C1.43358249 6.30764815 -0.68336156 10.06171464 -3 14 C-4.2418027 10.27459191 -3.54830353 9.50405535 -2 6 C-1.32204472 4.00379834 -0.65266469 2.00461299 0 0 Z " fill="#C0AC89" transform="translate(121,270)"/>
<path d="M0 0 C0.99 0 1.98 0 3 0 C3 0.66 3 1.32 3 2 C3.66 2 4.32 2 5 2 C5 2.66 5 3.32 5 4 C4.34 4 3.68 4 3 4 C2.34 6.64 1.68 9.28 1 12 C-1.83022097 8.00439392 -0.76210446 4.57262677 0 0 Z " fill="#C1AE8C" transform="translate(150,268)"/>
<path d="M0 0 C-0.33 0.66 -0.66 1.32 -1 2 C-2.32 2 -3.64 2 -5 2 C-5.33 2.66 -5.66 3.32 -6 4 C-8.31 4 -10.62 4 -13 4 C-13.33 3.34 -13.66 2.68 -14 2 C-9.07262981 0.02905192 -5.21979128 -0.1799928 0 0 Z " fill="#B6A07A" transform="translate(333,265)"/>
<path d="M0 0 C0.99 1.32 1.98 2.64 3 4 C0.47043472 7.0916909 -2.22454612 7.90931332 -6 9 C-4.79618552 6.50638429 -3.54571278 4.31856917 -2 2 C-1.34 2 -0.68 2 0 2 C0 1.34 0 0.68 0 0 Z " fill="#E1D9BF" transform="translate(236,168)"/>
<path d="M0 0 C0.66 0 1.32 0 2 0 C2.05422947 1.4370809 2.09289723 2.87475462 2.125 4.3125 C2.14820313 5.11300781 2.17140625 5.91351563 2.1953125 6.73828125 C2 9 2 9 0 12 C0 9.69 0 7.38 0 5 C-0.99 4.67 -1.98 4.34 -3 4 C-1.625 2 -1.625 2 0 0 Z " fill="#8B6635" transform="translate(203,244)"/>
<path d="M0 0 C0.66 0.66 1.32 1.32 2 2 C1.38416344 3.98203709 0.75706166 5.9605772 0.125 7.9375 C-0.22304687 9.03964844 -0.57109375 10.14179688 -0.9296875 11.27734375 C-2 14 -2 14 -4 15 C-2.07289294 4.44191344 -2.07289294 4.44191344 0 0 Z " fill="#AF976F" transform="translate(216,242)"/>
<path d="M0 0 C0 0.99 0 1.98 0 3 C-3.63 3.33 -7.26 3.66 -11 4 C-6.57169656 0.67877242 -5.30490754 -0.13960283 0 0 Z " fill="#E7E0C8" transform="translate(244,174)"/>
<path d="M0 0 C0.33 0 0.66 0 1 0 C1 2.97 1 5.94 1 9 C-0.32 9.33 -1.64 9.66 -3 10 C-2.25 2.25 -2.25 2.25 0 0 Z " fill="#CEBFA0" transform="translate(293,256)"/>
<path d="M0 0 C2 3 2 3 1.7578125 5.26171875 C1.54898438 6.06222656 1.34015625 6.86273438 1.125 7.6875 C0.92132813 8.49574219 0.71765625 9.30398437 0.5078125 10.13671875 C0.25644531 11.05904297 0.25644531 11.05904297 0 12 C-0.33 11.34 -0.66 10.68 -1 10 C-1.66 10 -2.32 10 -3 10 C-2.01 6.7 -1.02 3.4 0 0 Z " fill="#A68B61" transform="translate(220,243)"/>
<path d="M0 0 C0.33 0 0.66 0 1 0 C1 2.64 1 5.28 1 8 C0.34 7.34 -0.32 6.68 -1 6 C-1.99 6.66 -2.98 7.32 -4 8 C-4.33 7.01 -4.66 6.02 -5 5 C-4.34 5 -3.68 5 -3 5 C-2.5359375 4.0409375 -2.5359375 4.0409375 -2.0625 3.0625 C-1 1 -1 1 0 0 Z " fill="#AF976F" transform="translate(157,230)"/>
<path d="M0 0 C1.37562854 1.28965176 2.70766393 2.62689293 4 4 C4 4.66 4 5.32 4 6 C3.01 6 2.02 6 1 6 C1 6.99 1 7.98 1 9 C0.34 9 -0.32 9 -1 9 C-1 8.01 -1 7.02 -1 6 C-2.32 5.67 -3.64 5.34 -5 5 C-3.35 5 -1.7 5 0 5 C0 3.35 0 1.7 0 0 Z " fill="#D9CDB1" transform="translate(266,310)"/>
<path d="M0 0 C0.6875 1.625 0.6875 1.625 1 4 C-0.4375 7.25 -0.4375 7.25 -2 10 C-2.99 9.67 -3.98 9.34 -5 9 C-4.1875 6.5625 -4.1875 6.5625 -3 4 C-2.01 3.67 -1.02 3.34 0 3 C0 2.01 0 1.02 0 0 Z " fill="#A3875C" transform="translate(236,256)"/>
<path d="M0 0 C0.66 0.66 1.32 1.32 2 2 C1.625 5.625 1.625 5.625 1 9 C0.01 9 -0.98 9 -2 9 C-2 6.36 -2 3.72 -2 1 C-1.34 0.67 -0.68 0.34 0 0 Z " fill="#C7B695" transform="translate(154,254)"/>
<path d="M0 0 C0.99 0.33 1.98 0.66 3 1 C2.67 4.96 2.34 8.92 2 13 C1.67 13 1.34 13 1 13 C0.93941406 12.38511719 0.87882813 11.77023437 0.81640625 11.13671875 C0.73261719 10.32847656 0.64882812 9.52023437 0.5625 8.6875 C0.48128906 7.88699219 0.40007812 7.08648437 0.31640625 6.26171875 C0.04734307 3.83912821 0.04734307 3.83912821 -1 1 C-0.67 0.67 -0.34 0.34 0 0 Z " fill="#C0AD8A" transform="translate(200,248)"/>
<path d="M0 0 C0.99 1.32 1.98 2.64 3 4 C2.01 4.66 1.02 5.32 0 6 C-0.33 5.34 -0.66 4.68 -1 4 C-1.99 5.485 -1.99 5.485 -3 7 C-3.66 6.67 -4.32 6.34 -5 6 C-4.75 4.125 -4.75 4.125 -4 2 C-1.9375 0.75 -1.9375 0.75 0 0 Z " fill="#CFC0A1" transform="translate(151,235)"/>
<path d="M0 0 C-1.44253657 3.36591866 -3.33264727 5.51047079 -6 8 C-6.99 7.67 -7.98 7.34 -9 7 C-7.88121617 5.82737096 -6.75476949 4.66204862 -5.625 3.5 C-4.68527344 2.52546875 -4.68527344 2.52546875 -3.7265625 1.53125 C-2 0 -2 0 0 0 Z " fill="#A08256" transform="translate(164,161)"/>
<path d="M0 0 C2.5 0.125 2.5 0.125 5 1 C6.375 2.875 6.375 2.875 7 5 C6.67 5.99 6.34 6.98 6 8 C5.608125 7.195625 5.21625 6.39125 4.8125 5.5625 C3.23051809 2.76935262 3.23051809 2.76935262 0.3125 2.1875 C-0.8321875 2.0946875 -0.8321875 2.0946875 -2 2 C-1.34 1.34 -0.68 0.68 0 0 Z " fill="#9D7E52" transform="translate(286,251)"/>
<path d="M0 0 C1 2 1 2 0.44140625 3.9453125 C0.15136719 4.66460937 -0.13867188 5.38390625 -0.4375 6.125 C-0.72496094 6.84945312 -1.01242188 7.57390625 -1.30859375 8.3203125 C-1.53675781 8.87460938 -1.76492187 9.42890625 -2 10 C-2.33 10 -2.66 10 -3 10 C-3.33 7.36 -3.66 4.72 -4 2 C-2.68 1.34 -1.36 0.68 0 0 Z " fill="#967546" transform="translate(161,243)"/>
<path d="M0 0 C0 3 0 3 -1.1875 5.1875 C-3 7 -3 7 -5.6875 7.25 C-6.450625 7.1675 -7.21375 7.085 -8 7 C-7.01 6.67 -6.02 6.34 -5 6 C-4.67 5.01 -4.34 4.02 -4 3 C-3.34 3 -2.68 3 -2 3 C-2 2.34 -2 1.68 -2 1 C-1.34 0.67 -0.68 0.34 0 0 Z " fill="#9F8155" transform="translate(223,278)"/>
<path d="M0 0 C0.66 0 1.32 0 2 0 C1.67 2.31 1.34 4.62 1 7 C0.01 7.33 -0.98 7.66 -2 8 C-1.125 1.125 -1.125 1.125 0 0 Z " fill="#BEAA86" transform="translate(159,276)"/>
<path d="M0 0 C0.33 0.99 0.66 1.98 1 3 C1.66 3 2.32 3 3 3 C3.125 5.875 3.125 5.875 3 9 C2.34 9.66 1.68 10.32 1 11 C0.67 7.37 0.34 3.74 0 0 Z " fill="#BAA580" transform="translate(180,257)"/>
<path d="M0 0 C1 3 1 3 0 6 C-2.97 5.505 -2.97 5.505 -6 5 C-6 4.01 -6 3.02 -6 2 C-4.02 2 -2.04 2 0 2 C0 1.34 0 0.68 0 0 Z " fill="#A2855A" transform="translate(159,251)"/>
<path d="M0 0 C0.99 0.99 1.98 1.98 3 3 C2.34 3 1.68 3 1 3 C1 3.66 1 4.32 1 5 C-0.98 5.33 -2.96 5.66 -5 6 C-3.4198632 3.84526801 -1.89353366 1.89353366 0 0 Z " fill="#CFC1A2" transform="translate(314,283)"/>
<path d="M0 0 C0.66 0 1.32 0 2 0 C1.5359375 1.1446875 1.5359375 1.1446875 1.0625 2.3125 C0.32106407 4.18789677 -0.36228217 6.08684652 -1 8 C-1.66 8 -2.32 8 -3 8 C-2.25 2.25 -2.25 2.25 0 0 Z " fill="#C2B08D" transform="translate(368,256)"/>
<path d="M0 0 C1.32 0.33 2.64 0.66 4 1 C4 2.32 4 3.64 4 5 C3.34 5 2.68 5 2 5 C1.34 6.32 0.68 7.64 0 9 C0 6.03 0 3.06 0 0 Z " fill="#947344" transform="translate(245,258)"/>
<path d="M0 0 C0.66 0.99 1.32 1.98 2 3 C0.35 4.65 -1.3 6.3 -3 8 C-3.33 7.01 -3.66 6.02 -4 5 C-2.0625 2.3125 -2.0625 2.3125 0 0 Z " fill="#B49C76" transform="translate(144,245)"/>
<path d="M0 0 C0 0.66 0 1.32 0 2 C-3.78187881 3.83691257 -5.94568308 4.15837626 -10 3 C-6.71687741 1.24118433 -3.76143005 0 0 0 Z " fill="#A18459" transform="translate(285,363)"/>
<path d="M0 0 C0.66 0 1.32 0 2 0 C0.8141763 3.37503669 -0.27573689 5.64722731 -3 8 C-3.33 7.34 -3.66 6.68 -4 6 C-2.7260411 3.96166576 -1.38938077 1.96147874 0 0 Z " fill="#B7A07B" transform="translate(229,266)"/>
<path d="M0 0 C0.75 1.75 0.75 1.75 1 4 C-0.9375 6.25 -0.9375 6.25 -3 8 C-3.36923077 3.44615385 -3.36923077 3.44615385 -1.5 1.1875 C-1.005 0.795625 -0.51 0.40375 0 0 Z " fill="#AD936B" transform="translate(137,254)"/>
<path d="M0 0 C-0.66 0.66 -1.32 1.32 -2 2 C-4.1640625 1.9765625 -4.1640625 1.9765625 -6.625 1.625 C-7.44226563 1.51414063 -8.25953125 1.40328125 -9.1015625 1.2890625 C-9.72804688 1.19367188 -10.35453125 1.09828125 -11 1 C-6.8204355 -1.78637633 -4.85331323 -0.79562512 0 0 Z " fill="#A88E64" transform="translate(275,131)"/>
<path d="M0 0 C0.66 0.33 1.32 0.66 2 1 C1.67 1.99 1.34 2.98 1 4 C2.32 4.33 3.64 4.66 5 5 C2.36 5.33 -0.28 5.66 -3 6 C-2 4 -1 2 0 0 Z " fill="#B69F79" transform="translate(133,259)"/>
<path d="M0 0 C0.99 0.33 1.98 0.66 3 1 C4.6875 4.5625 4.6875 4.5625 6 8 C5.01 8.33 4.02 8.66 3 9 C2.01 6.03 1.02 3.06 0 0 Z " fill="#A68A60" transform="translate(259,170)"/>
</svg>
